<?xml version="1.0" standalone="no"?>
<!DOCTYPE svg PUBLIC "-//W3C//DTD SVG 20010904//EN"
 "http://www.w3.org/TR/2001/REC-SVG-20010904/DTD/svg10.dtd">
<svg version="1.0" xmlns="http://www.w3.org/2000/svg"
 width="500.000000pt" height="500.000000pt" viewBox="0 0 500.000000 500.000000"
 preserveAspectRatio="xMidYMid meet">

<g transform="translate(0.000000,500.000000) scale(0.100000,-0.100000)"
fill="#000000" stroke="none">
<path d="M1234 3926 c-45 -20 -102 -74 -127 -120 l-22 -41 -3 -784 c-3 -886
-5 -858 69 -932 66 -66 105 -79 242 -79 l117 0 0 645 c0 636 0 645 22 702 24
66 108 157 171 187 40 18 137 39 886 187 313 61 475 97 478 106 10 26 -44 90
-98 117 l-53 26 -825 0 c-668 -1 -832 -3 -857 -14z"/>
<path d="M2920 3669 c-162 -33 -487 -97 -722 -144 -234 -46 -442 -91 -461
-100 -45 -21 -93 -69 -120 -119 l-22 -41 0 -800 c0 -762 1 -802 19 -835 60
-113 142 -141 330 -110 l78 13 -3 676 c-3 725 -3 721 48 809 33 57 72 94 138
128 41 22 50 31 39 37 -16 9 -10 27 9 27 7 0 6 -4 -3 -10 -8 -5 -10 -10 -5
-10 6 0 17 5 25 10 13 9 13 10 0 10 -9 1 -6 6 10 16 24 15 12 13 -29 -4 -9 -3
-12 -1 -7 6 4 8 0 12 -11 13 -10 0 -13 3 -5 6 6 2 12 11 12 18 0 7 12 16 26
19 l27 7 -34 29 c-19 16 -39 29 -46 30 -6 0 -15 5 -18 10 -4 7 3 9 22 5 23 -5
25 -4 13 5 -13 10 -13 11 1 7 9 -3 34 1 56 8 55 19 942 198 973 197 14 -1 34
-12 45 -25 l21 -23 59 19 c33 11 62 21 64 23 9 8 -25 70 -54 100 -34 34 -89
54 -145 53 -19 -1 -168 -28 -330 -60z m-728 -328 c5 -4 -8 -5 -27 -3 -19 2
-38 8 -41 13 -6 10 57 0 68 -10z m-89 2 c-7 -2 -19 -2 -25 0 -7 3 -2 5 12 5
14 0 19 -2 13 -5z m-46 -9 c-3 -3 -12 -4 -19 -1 -8 3 -5 6 6 6 11 1 17 -2 13
-5z m-44 -11 c-7 -2 -19 -2 -25 0 -7 3 -2 5 12 5 14 0 19 -2 13 -5z m227 -10
c3 -3 -1 -8 -7 -10 -7 -3 -13 -11 -13 -18 0 -27 -17 -23 -49 12 l-33 36 49 -8
c26 -4 50 -9 53 -12z"/>
<path d="M2240 3350 c0 -5 5 -10 11 -10 5 0 7 5 4 10 -3 6 -8 10 -11 10 -2 0
-4 -4 -4 -10z"/>
<path d="M2374 3223 c-10 -7 -13 -13 -7 -13 7 0 15 5 18 10 4 6 9 9 13 6 4 -2
16 0 27 5 17 7 16 7 -7 6 -15 -1 -35 -7 -44 -14z"/>
<path d="M2280 3190 c-18 -12 -2 -12 25 0 13 6 15 9 5 9 -8 0 -22 -4 -30 -9z"/>
<path d="M2326 3103 c-3 -4 -16 -8 -28 -10 -33 -5 -89 -43 -81 -56 4 -7 0 -8
-13 -3 -10 4 -15 4 -12 0 4 -4 -4 -15 -18 -26 -28 -23 -57 -74 -49 -87 3 -5
-1 -11 -7 -13 -17 -6 -25 -1543 -8 -1601 24 -82 112 -146 202 -147 42 0 338
96 1201 391 74 25 94 35 80 41 -13 6 -9 7 14 5 17 -2 32 -1 31 2 -2 23 5 31
26 29 14 -1 22 -6 19 -11 -6 -10 20 -3 74 19 33 14 44 26 21 23 -42 -5 -59 3
-75 36 -9 19 -21 35 -27 36 -6 0 -2 4 9 9 15 6 16 9 4 9 -9 1 -318 -100 -688
-224 -480 -161 -679 -223 -697 -219 -57 14 -55 -10 -61 776 -4 398 -3 740 1
761 8 43 81 127 111 128 11 0 36 7 55 15 33 13 33 14 5 9 -16 -3 -40 -8 -52
-11 -14 -4 -28 1 -42 15 -21 21 -21 21 -1 21 11 0 20 -7 20 -15 0 -8 4 -15 9
-15 14 0 4 50 -15 71 -11 12 -13 19 -5 19 7 0 9 5 5 11 -4 8 1 9 16 4 15 -5
20 -4 16 4 -8 12 -29 15 -40 4z m-44 -82 c5 -1 5 -18 -1 -39 -1 -1 -15 5 -31
13 -46 24 -33 34 32 26z m42 -36 c3 -8 -4 -21 -16 -30 -20 -13 -24 -13 -46 8
-13 12 -25 20 -27 17 -2 -3 -7 -2 -11 2 -8 8 31 2 45 -7 6 -3 16 1 23 9 17 19
24 20 32 1z m-66 -50 c-3 -3 -9 2 -12 12 -6 14 -5 15 5 6 7 -7 10 -15 7 -18z
m1269 -1270 c0 -8 -4 -12 -9 -9 -5 3 -6 10 -3 15 9 13 12 11 12 -6z m60 -11
c-3 -3 -12 -4 -19 -1 -8 3 -5 6 6 6 11 1 17 -2 13 -5z m26 -41 c-7 -2 -21 -2
-30 0 -10 3 -4 5 12 5 17 0 24 -2 18 -5z"/>
<path d="M2295 2970 c-16 -7 -17 -9 -3 -9 9 -1 20 4 23 9 7 11 7 11 -20 0z"/>
<path d="M2530 3035 c-19 -7 -28 -13 -20 -13 8 0 31 6 50 13 19 7 28 13 20 13
-8 0 -31 -6 -50 -13z"/>
<path d="M3781 1897 c0 -15 -7 -42 -15 -60 -13 -31 -12 -33 8 -34 11 -1 16 1
9 4 -8 3 -8 14 -1 39 5 19 7 45 5 57 -3 18 -5 17 -6 -6z"/>
<path d="M3724 1774 c-18 -14 -18 -15 4 -4 12 6 22 13 22 15 0 8 -5 6 -26 -11z"/>
<path d="M3650 1610 c0 -5 5 -10 10 -10 6 0 10 5 10 10 0 6 -4 10 -10 10 -5 0
-10 -4 -10 -10z"/>
</g>
</svg>
